<svg height="22pt" width="22pt" viewBox="0 0 128 128">
<path fill-rule="evenodd" d="m13.75 0l-11.723 6.875 0.0003 13.75 11.723 6.875 11.723-6.875v-13.75l-11.723-6.875zm-0.059 6.0918a7.5992 7.5992 0 0 1 7.6 7.5992 7.5992 7.5992 0 0 1 -7.6 7.6 7.5992 7.5992 0 0 1 -7.5992 -7.6 7.5992 7.5992 0 0 1 7.5992 -7.5992zm0 1.0273c-3.629 0-6.5719 2.9429-6.5719 6.5719 0 3.63 2.9429 6.573 6.5719 6.573 3.63 0 6.573-2.943 6.573-6.573 0-3.629-2.943-6.5719-6.573-6.5719zm0 0.4102c0.229 0 0.411 0.185 0.411 0.4121v6.1606h-3.698c-0.221 0-0.4099-0.184-0.4099-0.411 0-0.228 0.1839-0.41 0.4099-0.41h2.877v-5.3376c0-0.2288 0.184-0.4141 0.41-0.4141z" transform="scale(4.6545)"/>
</svg>
